<svg xmlns="http://www.w3.org/2000/svg" xmlns:xlink="http://www.w3.org/1999/xlink" viewBox="0 0 40 320" width="400" height="400">
  <g id="inventory">
    <path class="st1" d="M23.9,296.3L23.9,296.3c-0.1-0.6-0.6-1.2-1.1-1.4c0-2.1-0.2-4.3-0.6-6.4c-0.2-1.2-1.3-2.4-2.6-2.8 c-0.5-0.1-1.1-0.2-1.6-0.3v-1.6c0-1-0.8-1.8-1.8-1.8h-4.4c-1,0-1.8,0.8-1.8,1.8v1.6c-0.5,0.1-1.1,0.2-1.6,0.3c-1.2,0.3-2.3,1.5-2.6,2.8c-0.4,2.1-0.5,4.3-0.6,6.4c-0.6,0.2-1,0.8-1.1,1.4c-0.2,1.6-0.2,3.1,0,4.7c0.1,0.7,0.6,1.3,1.3,1.4c0.1,0,0.3,0.1,0.4,0.1v0.1c0.2,1.2,1.3,2.4,2.6,2.8c1.9,0.4,3.7,0.7,5.6,0.7s3.8-0.2,5.6-0.7c1.2-0.3,2.3-1.5,2.6-2.8v-0.1c0.1,0,0.3-0.1,0.4-0.1c0.6-0.2,1.2-0.8,1.3-1.4C24.1,299.4,24.1,297.8,23.9,296.3z M12,284.5c0-0.3,0.2-0.5,0.5-0.5h3c0.3,0,0.5,0.2,0.5,0.5v0.6c-1.3-0.1-2.7-0.1-4,0V284.5z M21.9,300.5c-0.2,0-0.4,0.1-0.7,0.1l-0.8,0.1l-0.2,1.1c0,0.2-0.1,0.4-0.1,0.5c-0.1,0.5-0.6,1-1.1,1.2c-3.4,0.8-6.9,0.8-10.3,0c-0.5-0.1-1-0.7-1.1-1.1c0-0.2-0.1-0.4-0.1-0.5l-0.2-1.1l-0.8-0.1c-0.3,0-0.5-0.1-0.7-0.1c-0.2-1.3-0.2-2.5,0-3.8c0.1,0,0.2,0,0.3-0.1l0.8-0.1v-0.9c0-2.3,0.2-4.6,0.6-6.9c0.1-0.5,0.6-1,1.1-1.2c3.4-0.8,6.9-0.8,10.3,0c0.5,0.1,1,0.7,1.1,1.1c0.4,2.3,0.6,4.6,0.6,6.9v0.9l0.8,0.1c0.1,0,0.2,0,0.3,0.1C22.1,298,22.1,299.2,21.9,300.5z"/>
    <path class="st1" d="M16,295.2L16,295.2c-1.4-0.2-2.7-0.2-4.1,0c-0.8,0.1-1.6,0.9-1.8,1.7c-0.2,1.4-0.2,2.9,0,4.3c0.1,0.8,1,1.5,1.8,1.7c0.7,0.1,1.4,0.2,2,0.2c0.7,0,1.4-0.1,2.1-0.2c0.8-0.1,1.6-0.9,1.8-1.7c0.2-1.4,0.2-2.9,0-4.3C17.7,296.1,16.9,295.3,16,295.2z M15.9,300.7c0,0.1-0.1,0.1-0.1,0.1c-1.2,0.2-2.4,0.2-3.4,0c0,0-0.1-0.1-0.2-0.1c-0.2-1.2-0.2-2.3,0-3.5c0-0.1,0.1-0.1,0.1-0.1c1.1-0.2,2.3-0.2,3.4,0c0,0,0.1,0.1,0.2,0.1C16,298.4,16,299.6,15.9,300.7z"/>
    <path class="st1" d="M17,290h-6c-0.6,0-1,0.4-1,1s0.4,1,1,1h6c0.6,0,1-0.4,1-1S17.6,290,17,290z"/>
  </g>
</svg>
